<svg width="32" height="32" viewBox="0 0 32 32" fill="none" xmlns="http://www.w3.org/2000/svg">
<path d="M32 0H0V32H32V0Z" fill="#4DA0F1"/>
<path d="M4.23947 23.7208C6.36915 25.0715 8.89541 25.8531 11.6035 25.8531C19.2114 25.8531 25.3786 19.6852 25.3786 12.078C25.3786 11.8881 25.3746 11.6995 25.3673 11.5115C25.6425 11.295 27.3444 9.9309 27.7616 9.05396C27.7616 9.05396 26.3795 9.62833 25.0268 9.76364C25.0242 9.76364 25.0209 9.76427 25.0182 9.76427C25.0182 9.76427 25.0209 9.76294 25.0255 9.75964C25.1501 9.67636 26.8926 8.49019 27.1286 7.07686C27.1286 7.07686 26.151 7.59865 24.7823 8.05513C24.5557 8.1304 24.3185 8.20441 24.0739 8.27301C23.1916 7.3314 21.9376 6.74368 20.5455 6.74368C17.8754 6.74368 15.7117 8.90671 15.7117 11.5748C15.7117 11.9513 15.755 12.3178 15.837 12.6696C15.4638 12.6543 9.78169 12.3358 5.91611 7.65454C5.91611 7.65454 3.60584 10.8085 7.29285 14.0516C7.29285 14.0516 6.17205 14.007 5.2051 13.4292C5.2051 13.4292 4.84994 17.2502 9.02538 18.2271C9.02538 18.2271 8.20378 18.5383 6.89304 18.3164C6.89304 18.3164 7.62603 21.4037 11.3357 21.6922C11.3357 21.6922 8.40228 24.3422 4.23814 23.7204L4.23947 23.7208Z" fill="white"/>
</svg>
